<svg xmlns="http://www.w3.org/2000/svg" xmlns:xlink="http://www.w3.org/1999/xlink" width="841" zoomAndPan="magnify" viewBox="0 0 630.75 1016.999952" height="1356" preserveAspectRatio="xMidYMid meet" version="1.0"><defs><filter x="0%" y="0%" width="100%" height="100%" id="3a07e99cc8"><feColorMatrix values="0 0 0 0 1 0 0 0 0 1 0 0 0 0 1 0 0 0 1 0" color-interpolation-filters="sRGB"/></filter><clipPath id="bba2959435"><path d="M 0 0.203125 L 630.5 0.203125 L 630.5 1016.796875 L 0 1016.796875 Z M 0 0.203125 " clip-rule="nonzero"/></clipPath><mask id="8764bb0865"><g filter="url(#3a07e99cc8)"><rect x="-63.075" width="756.9" fill="#000000" y="-101.699995" height="1220.399943" fill-opacity="0.84"/></g></mask><clipPath id="bc83fb0b86"><path d="M 0 0.203125 L 630.019531 0.203125 L 630.019531 1005 L 0 1005 Z M 0 0.203125 " clip-rule="nonzero"/></clipPath><clipPath id="3126566d58"><path d="M 630.019531 725.429688 C 630.019531 879.753906 488.984375 1004.855469 315.007812 1004.855469 C 141.03125 1004.855469 -0.00390625 879.753906 -0.00390625 725.429688 L -0.00390625 279.628906 C -0.00390625 125.304688 141.03125 0.203125 315.007812 0.203125 C 488.984375 0.203125 630.019531 125.304688 630.019531 279.628906 Z M 630.019531 725.429688 " clip-rule="nonzero"/></clipPath><clipPath id="8f7a21a43e"><path d="M 0 0.203125 L 630.019531 0.203125 L 630.019531 1004.921875 L 0 1004.921875 Z M 0 0.203125 " clip-rule="nonzero"/></clipPath><clipPath id="a98c8107b7"><path d="M 630.019531 725.429688 C 630.019531 879.753906 488.984375 1004.855469 315.007812 1004.855469 C 141.03125 1004.855469 -0.00390625 879.753906 -0.00390625 725.429688 L -0.00390625 279.628906 C -0.00390625 125.304688 141.03125 0.203125 315.007812 0.203125 C 488.984375 0.203125 630.019531 125.304688 630.019531 279.628906 Z M 630.019531 725.429688 " clip-rule="nonzero"/></clipPath><clipPath id="1c36207aec"><rect x="0" width="631" y="0" height="1005"/></clipPath><clipPath id="5afaeb25a1"><path d="M 0 709.796875 L 630.023438 709.796875 L 630.023438 1016.699219 L 0 1016.699219 Z M 0 709.796875 " clip-rule="nonzero"/></clipPath><clipPath id="b5ae2fd990"><path d="M 0 0.796875 L 630.023438 0.796875 L 630.023438 307.699219 L 0 307.699219 Z M 0 0.796875 " clip-rule="nonzero"/></clipPath><clipPath id="4446bdf679"><rect x="0" width="631" y="0" height="308"/></clipPath><clipPath id="5f0a635537"><rect x="0" width="631" y="0" height="1017"/></clipPath></defs><g clip-path="url(#bba2959435)"><g mask="url(#8764bb0865)"><g transform="matrix(1, 0, 0, 1, 0, -0.000000000000258377)"><g clip-path="url(#5f0a635537)"><g clip-path="url(#bc83fb0b86)"><g clip-path="url(#3126566d58)"><g transform="matrix(1, 0, 0, 1, 0, -0.000000000000258377)"><g clip-path="url(#1c36207aec)"><g clip-path="url(#8f7a21a43e)"><g clip-path="url(#a98c8107b7)"><path fill="#efe1d0" d="M 630.019531 0.203125 L 630.019531 1004.300781 L -0.00390625 1004.300781 L -0.00390625 0.203125 Z M 630.019531 0.203125 " fill-opacity="1" fill-rule="nonzero"/></g></g></g></g></g></g><g clip-path="url(#5afaeb25a1)"><g transform="matrix(1, 0, 0, 1, 0, 709)"><g clip-path="url(#4446bdf679)"><g clip-path="url(#b5ae2fd990)"><path fill="#efe1d0" d="M 0 0.796875 L 630.582031 0.796875 L 630.582031 307.699219 L 0 307.699219 Z M 0 0.796875 " fill-opacity="1" fill-rule="nonzero"/></g></g></g></g></g></g></g></g></svg>